<svg xmlns="http://www.w3.org/2000/svg" viewBox="0 0 120 120" width="120" height="120" role="img" aria-label="happy box character"><title>happy box character</title><g transform="translate(0 0) scale(1.0)"><ellipse cx="60" cy="108" rx="30" ry="5" fill="#1A1D21" opacity=".10"/><rect x="42" y="98" width="12" height="8" rx="4" fill="#1A1D21"/><rect x="66" y="98" width="12" height="8" rx="4" fill="#1A1D21"/><path d="M30 64 Q16 54 18 40" fill="none" stroke="#1A1D21" stroke-width="4" stroke-linecap="round"/><path d="M90 64 Q104 54 102 40" fill="none" stroke="#1A1D21" stroke-width="4" stroke-linecap="round"/><circle cx="18" cy="40" r="4.5" fill="#1A1D21"/><circle cx="102" cy="40" r="4.5" fill="#1A1D21"/><path d="M30 46 L18 30 L56 32 L60 46 Z" fill="#F2C45A" stroke="#1A1D21" stroke-width="2.5" stroke-linejoin="round" stroke-linecap="round"/><path d="M60 46 L64 32 L102 30 L90 46 Z" fill="#F2C45A" stroke="#1A1D21" stroke-width="2.5" stroke-linejoin="round" stroke-linecap="round"/><rect x="28" y="44" width="64" height="56" rx="9" fill="#E8A317" stroke="#1A1D21" stroke-width="2.5" stroke-linejoin="round" stroke-linecap="round"/><rect x="54" y="45.5" width="12" height="14" fill="#FBEBC0" opacity=".9"/><path d="M44 70 Q49 64 54 70" fill="none" stroke="#1A1D21" stroke-width="2.5" stroke-linejoin="round" stroke-linecap="round"/><path d="M66 70 Q71 64 76 70" fill="none" stroke="#1A1D21" stroke-width="2.5" stroke-linejoin="round" stroke-linecap="round"/><circle cx="42" cy="79" r="3.5" fill="#CC8C0C" opacity=".55"/><circle cx="78" cy="79" r="3.5" fill="#CC8C0C" opacity=".55"/><path d="M51 78 Q60 90 69 78 Z" fill="#1A1D21" stroke="#1A1D21" stroke-width="2.5" stroke-linejoin="round" stroke-linecap="round"/></g></svg>